<svg width="25" height="26" viewBox="0 0 25 26" fill="none" xmlns="http://www.w3.org/2000/svg">
    <path fill-rule="evenodd" clip-rule="evenodd" d="M7.62334 0.0438095C5.98419 0.270888 4.61799 1.52437 4.18351 3.19983C3.95785 4.07012 4.14604 5.29886 4.62008 6.05007C4.73081 6.22552 4.87539 6.46601 4.94142 6.58447L5.06137 6.79986L3.51711 6.79217C2.66775 6.78792 2.08335 6.80361 2.21847 6.82712L2.46414 6.86977L2.07948 6.9198C1.39502 7.00872 0.723159 7.56091 0.535401 8.18879C0.43707 8.51766 0.430743 12.1865 0.527908 12.548C0.611131 12.8577 1.00489 13.3117 1.33778 13.4819C1.46449 13.5467 1.75592 13.6269 1.98544 13.6601C2.2275 13.6952 4.26827 13.7211 6.84596 13.7218L11.2892 13.723L11.2681 10.3383L11.2471 6.95371H12.3972H13.5474L13.546 10.323L13.5446 13.6922H18.2614H22.9781L23.2991 13.5468C23.6342 13.395 24.0657 12.9811 24.1905 12.6917C24.2902 12.4606 24.3325 8.82708 24.2412 8.33083C24.1623 7.90098 23.942 7.5675 23.5269 7.24922C23.0749 6.90263 22.8175 6.8614 21.1048 6.8614C20.2772 6.8614 19.6692 6.851 19.7536 6.83832C19.8778 6.81967 19.8866 6.8078 19.8 6.77611C19.7058 6.74164 19.7195 6.69998 19.9142 6.42995C20.6685 5.3836 20.8639 4.07775 20.4527 2.83121C20.0866 1.72111 19.1276 0.688245 18.1084 0.306211C16.928 -0.136315 15.3674 -0.0954531 14.3579 0.404489C13.703 0.728738 12.9921 1.45287 12.6597 2.1341C12.5246 2.41103 12.3963 2.63946 12.3747 2.6418C12.353 2.64407 12.289 2.53029 12.2326 2.38887C12.0766 1.99822 11.5388 1.25385 11.1899 0.945601C10.7885 0.590952 10.0122 0.20658 9.46591 0.092056C9.07044 0.00916307 8.06359 -0.0172371 7.62334 0.0438095ZM8.10616 2.33533C7.42803 2.44143 6.75549 2.99362 6.57891 3.58925C6.33649 4.4071 6.52935 5.36693 7.05098 5.93875C7.66953 6.6169 8.36062 6.79266 10.2644 6.75604L11.1856 6.73832L11.1693 5.78447C11.1495 4.63449 11.0734 4.01442 10.9131 3.69971C10.7358 3.35153 9.92551 2.54444 9.83965 2.63054C9.81987 2.65029 9.80372 2.63497 9.80372 2.59644C9.80372 2.4202 8.67422 2.24653 8.10616 2.33533ZM15.6525 2.3394C15.1717 2.40967 14.7198 2.65989 14.325 3.07472C13.7054 3.72556 13.5557 4.26372 13.5522 5.85481C13.5506 6.56478 13.5653 6.70017 13.6474 6.73174C13.7009 6.75229 14.2907 6.76909 14.9583 6.76909C16.004 6.76909 16.2205 6.75241 16.5221 6.64841C17.0787 6.45653 17.4749 6.21149 17.7644 5.87985C18.1363 5.45388 18.2477 5.09677 18.245 4.3383C18.2426 3.61737 18.1326 3.30371 17.7399 2.89835C17.4454 2.59429 17.0959 2.42973 16.5594 2.34253C16.1217 2.27133 16.1184 2.27133 15.6525 2.3394ZM9.38644 6.87623C9.61301 6.88798 9.99995 6.88811 10.2463 6.87635C10.4927 6.86466 10.3199 6.88512 9.84697 6.88506C9.37405 6.88493 9.15992 6.86441 9.38644 6.87623ZM5.3969 15.1845L2.12634 15.201V19.2283C2.12634 21.9218 2.14876 23.3634 2.19396 23.5816C2.36937 24.4269 2.99548 25.2922 3.67097 25.6225C4.26004 25.9106 4.42507 25.9233 7.94579 25.9513L11.2778 25.9777L11.2771 20.7888C11.2767 17.935 11.2593 15.4961 11.2383 15.3692L11.2003 15.1384L9.93387 15.1532C9.23737 15.1614 7.19574 15.1755 5.3969 15.1845ZM13.5096 16.9073C13.5319 17.8467 13.5501 20.2769 13.5501 22.3077L13.5502 26L16.8515 25.9646C20.5776 25.9246 20.6455 25.917 21.339 25.4643C21.8046 25.1604 22.0808 24.8366 22.3307 24.3016C22.6146 23.6936 22.6461 23.1216 22.6267 18.923L22.6096 15.2307L18.0393 15.2149L13.4691 15.1991L13.5096 16.9073Z"/>
</svg>
