<svg width="24" height="23" viewBox="0 0 24 23" fill="none" xmlns="http://www.w3.org/2000/svg">
<path fill-rule="evenodd" clip-rule="evenodd" d="M11.3597 19.0581L5.95867 22.3012C5.39707 22.6384 4.66289 22.4655 4.31886 21.9151C4.15082 21.6462 4.10073 21.3222 4.17992 21.0167L5.016 17.7912C5.3178 16.6268 6.13071 15.6535 7.23563 15.1335L13.1278 12.3607C13.4025 12.2314 13.5183 11.9083 13.3864 11.6391C13.2796 11.421 13.0381 11.299 12.7949 11.3403L6.23613 12.4532C4.90288 12.6795 3.53564 12.3186 2.49856 11.4668L0.426583 9.76485C-0.0782049 9.35021 -0.144486 8.61299 0.278542 8.11823C0.484286 7.87758 0.780151 7.72818 1.0995 7.7037L7.43001 7.2181C7.87725 7.18379 8.267 6.90638 8.4387 6.50016L10.8809 0.721816C11.133 0.125424 11.8305 -0.157763 12.439 0.089297C12.7312 0.207925 12.9633 0.435448 13.0843 0.721816L15.5265 6.50016C15.6982 6.90638 16.088 7.18379 16.5352 7.2181L22.9006 7.70637C23.5572 7.75673 24.0477 8.31927 23.9963 8.96285C23.9716 9.27244 23.8222 9.55967 23.5811 9.76113L18.7267 13.8176C18.3847 14.1032 18.2358 14.5527 18.3408 14.9807L19.8332 21.0576C19.9874 21.6852 19.5932 22.3164 18.953 22.4675C18.6453 22.5402 18.3208 22.4898 18.0509 22.3277L12.6056 19.0581C12.2233 18.8286 11.7419 18.8286 11.3597 19.0581Z" fill="#007AFF"/>
</svg>
