<svg width="20" height="20" viewBox="0 0 20 20" fill="none" xmlns="http://www.w3.org/2000/svg">
<rect x="1.335" y="1.335" width="17.33" height="17.33" rx="8.665" fill="#007AFF"/>
<rect x="1.335" y="1.335" width="17.33" height="17.33" rx="8.665" stroke="white" stroke-width="1.33"/>
<path d="M14.9445 8.19591L14.0992 6.22486C13.9738 5.93261 13.9112 5.78648 13.8102 5.67921C13.721 5.58441 13.6108 5.5118 13.4885 5.46721C13.3501 5.41675 13.191 5.41675 12.8728 5.41675H7.12726C6.80908 5.41675 6.65 5.41675 6.51157 5.46721C6.38923 5.5118 6.27905 5.58441 6.18984 5.67921C6.0889 5.78648 6.02623 5.9326 5.9009 6.22486L5.05558 8.19591H14.9445Z" fill="white"/>
<path fill-rule="evenodd" clip-rule="evenodd" d="M5.83051 10.6337C6.05798 10.7171 6.30374 10.7626 6.56017 10.7626C6.98257 10.7626 7.37641 10.6387 7.70679 10.4258C8.03717 10.6387 8.43101 10.7626 8.85341 10.7626C9.2758 10.7626 9.66964 10.6387 10 10.4258C10.3304 10.6387 10.7242 10.7626 11.1466 10.7626C11.569 10.7626 11.9629 10.6387 12.2933 10.4258C12.6236 10.6387 13.0175 10.7626 13.4399 10.7626C13.6963 10.7626 13.9421 10.7171 14.1695 10.6337V13.2501C14.1695 13.7168 14.1695 13.9501 14.0787 14.1284C13.9987 14.2852 13.8711 14.4127 13.7142 14.4926C13.5358 14.5834 13.3023 14.5834 12.8353 14.5834H7.16476C6.69773 14.5834 6.46421 14.5834 6.28583 14.4926C6.12892 14.4127 6.00135 14.2852 5.9214 14.1284C5.83051 13.9501 5.83051 13.7168 5.83051 13.2501V10.6337ZM6.6644 12.3334C6.6644 12.1001 6.6644 11.9834 6.70984 11.8943C6.74982 11.8159 6.8136 11.7521 6.89206 11.7122C6.98125 11.6667 7.098 11.6667 7.33152 11.6667H8.91594C9.14945 11.6667 9.26621 11.6667 9.3554 11.7122C9.43385 11.7521 9.49764 11.8159 9.53761 11.8943C9.58306 11.9834 9.58306 12.1001 9.58306 12.3334V13.0834C9.58306 13.3168 9.58306 13.4334 9.53761 13.5226C9.49764 13.601 9.43385 13.6647 9.3554 13.7047C9.26621 13.7501 9.14945 13.7501 8.91594 13.7501H7.33152C7.098 13.7501 6.98125 13.7501 6.89206 13.7047C6.8136 13.6647 6.74982 13.601 6.70984 13.5226C6.6644 13.4334 6.6644 13.3168 6.6644 13.0834V12.3334Z" fill="white"/>
<path d="M6.56015 10.2084C5.73164 10.2084 5.05364 9.56446 5 8.75008H15C14.9464 9.56446 14.2684 10.2084 13.4399 10.2084C12.9868 10.2084 12.5788 10.0159 12.2932 9.70822C12.0077 10.0159 11.5996 10.2084 11.1466 10.2084C10.6936 10.2084 10.2856 10.0159 10 9.70822C9.71444 10.0159 9.30641 10.2084 8.85338 10.2084C8.40035 10.2084 7.99232 10.0159 7.70677 9.70822C7.42121 10.0159 7.01318 10.2084 6.56015 10.2084Z" fill="white"/>
</svg>
