<svg width="20" height="20" viewBox="0 0 20 20" fill="none" xmlns="http://www.w3.org/2000/svg">
<rect x="1.335" y="1.335" width="17.33" height="17.33" rx="8.665" fill="#35C759"/>
<rect x="1.335" y="1.335" width="17.33" height="17.33" rx="8.665" stroke="white" stroke-width="1.33"/>
<path d="M13.8999 6.40015H6.09993C5.93424 6.40015 5.79993 6.53446 5.79993 6.70015V7.30015C5.79993 7.46583 5.93424 7.60015 6.09993 7.60015H13.8999C14.0656 7.60015 14.1999 7.46583 14.1999 7.30015V6.70015C14.1999 6.53446 14.0656 6.40015 13.8999 6.40015Z" fill="white"/>
<path fill-rule="evenodd" clip-rule="evenodd" d="M5.19995 6.70005C5.19995 6.20299 5.60289 5.80005 6.09995 5.80005H13.9C14.397 5.80005 14.8 6.20299 14.8 6.70005V7.30005C14.8 7.79711 14.397 8.20005 13.9 8.20005H6.09995C5.60289 8.20005 5.19995 7.79711 5.19995 7.30005V6.70005Z" fill="white"/>
<path fill-rule="evenodd" clip-rule="evenodd" d="M12.9999 10C13.3313 10 13.5999 10.2686 13.5999 10.6V14.2C13.5999 14.5314 13.3313 14.8 12.9999 14.8C12.6685 14.8 12.3999 14.5314 12.3999 14.2V10.6C12.3999 10.2686 12.6685 10 12.9999 10Z" fill="white"/>
<path fill-rule="evenodd" clip-rule="evenodd" d="M11.0756 12.2758C11.31 12.0415 11.6899 12.0415 11.9242 12.2758L12.9999 13.3516L14.0756 12.2758C14.31 12.0415 14.6899 12.0415 14.9242 12.2758C15.1585 12.5101 15.1585 12.89 14.9242 13.1244L13.4242 14.6244C13.1899 14.8587 12.81 14.8587 12.5756 14.6244L11.0756 13.1244C10.8413 12.89 10.8413 12.5101 11.0756 12.2758Z" fill="white"/>
<path d="M10.2273 13.9727C9.88773 13.6331 9.69993 13.1807 9.69993 12.7001C9.69993 12.2195 9.88713 11.7671 10.2273 11.4275C10.4955 11.1593 10.8333 10.9859 11.1999 10.9247V10.6001C11.1999 10.1375 11.3805 9.71935 11.6679 9.40015H5.79993V11.8001C5.79993 13.1237 6.87633 14.2001 8.19993 14.2001H10.4547L10.2273 13.9727Z" fill="white"/>
</svg>
