<svg width="16" height="16" viewBox="0 0 16 16" fill="none" xmlns="http://www.w3.org/2000/svg">
<path d="M8 16C3.58431 16 0 12.4157 0 8C0 3.58431 3.58431 0 8 0C12.4157 0 16 3.58431 16 8C16 12.4157 12.4157 16 8 16ZM8 14.6667C11.6863 14.6667 14.6667 11.6863 14.6667 8C14.6667 4.31373 11.6863 1.33333 8 1.33333C4.31373 1.33333 1.33333 4.31373 1.33333 8C1.33333 11.6863 4.31373 14.6667 8 14.6667ZM3.89804 8.84706C3.58431 8.84706 3.34902 8.61176 3.34902 8.29804C3.34902 7.99216 3.58431 7.75686 3.89804 7.75686H7.45098V3.01176C7.45098 2.70588 7.68627 2.47059 7.99216 2.47059C8.29804 2.47059 8.54118 2.70588 8.54118 3.01176V8.29804C8.54118 8.61176 8.29804 8.84706 7.99216 8.84706H3.89804Z" fill="#007AFF"/>
</svg>
