<svg width="20" height="20" viewBox="0 0 20 20" fill="none" xmlns="http://www.w3.org/2000/svg">
<rect x="1.335" y="1.335" width="17.33" height="17.33" rx="8.665" fill="#AF51DE"/>
<rect x="1.335" y="1.335" width="17.33" height="17.33" rx="8.665" stroke="white" stroke-width="1.33"/>
<path fill-rule="evenodd" clip-rule="evenodd" d="M10.6995 9.30049C10.9338 9.53481 10.9338 9.91471 10.6995 10.149L8.93491 11.9136C8.70059 12.1479 8.3207 12.1479 8.08638 11.9136C7.85207 11.6793 7.85207 11.2994 8.08638 11.0651L9.85098 9.30049C10.0853 9.06618 10.4652 9.06618 10.6995 9.30049Z" fill="white"/>
<path fill-rule="evenodd" clip-rule="evenodd" d="M13.0246 6.90401C13.0246 6.90401 13.0246 6.90401 13.0246 6.90401L5.9386 9.26621C5.91971 9.2725 5.91403 9.27944 5.9114 9.28292C5.90694 9.28883 5.90179 9.29954 5.90041 9.31437C5.89904 9.3292 5.90213 9.34071 5.90545 9.34737C5.90742 9.35133 5.91174 9.35919 5.92913 9.36885L8.80204 10.9649C8.89998 11.0193 8.98073 11.1001 9.03515 11.198L10.6311 14.0708C10.6408 14.0882 10.6487 14.0926 10.6527 14.0946C10.6593 14.0979 10.6709 14.101 10.6857 14.0996C10.7005 14.0983 10.7112 14.0931 10.7171 14.0887C10.7206 14.086 10.7275 14.0804 10.7338 14.0615L13.096 6.97547C13.1016 6.95871 13.1001 6.95002 13.0988 6.94497C13.0969 6.93756 13.0919 6.92743 13.0823 6.91777C13.0726 6.90811 13.0625 6.90314 13.0551 6.90122C13.05 6.89992 13.0413 6.89843 13.0246 6.90401ZM12.6451 5.76559C13.6272 5.43824 14.5618 6.37288 14.2345 7.35494L11.8723 14.4409C11.5265 15.4783 10.1128 15.6089 9.58216 14.6536C9.58214 14.6536 9.58218 14.6536 9.58216 14.6536L8.06941 11.9306L5.34657 10.418C5.34654 10.4179 5.34661 10.418 5.34657 10.418C4.39124 9.88736 4.52179 8.47358 5.5591 8.1278C5.5591 8.1278 5.55911 8.1278 5.5591 8.1278L12.6451 5.76559Z" fill="white"/>
</svg>
