<svg width="27" height="24" viewBox="0 0 27 24" fill="none" xmlns="http://www.w3.org/2000/svg">
<path d="M25.9806 7.30908L23.7828 2.18433C23.457 1.4245 23.294 1.04455 23.0316 0.765658C22.7996 0.519168 22.5131 0.330389 22.1951 0.214441C21.8352 0.083252 21.4215 0.083252 20.5943 0.083252H5.65588C4.82862 0.083252 4.41499 0.083252 4.05509 0.214441C3.73701 0.330389 3.45052 0.519168 3.21858 0.765658C2.95614 1.04455 2.79321 1.42448 2.46733 2.18433L0.269508 7.30908H25.9806Z" fill="#007AFF"/>
<path fill-rule="evenodd" clip-rule="evenodd" d="M2.28434 13.6472C2.87574 13.8641 3.51473 13.9824 4.18145 13.9824C5.27969 13.9824 6.30367 13.6603 7.16266 13.1068C8.02165 13.6603 9.04563 13.9824 10.1439 13.9824C11.2421 13.9824 12.2661 13.6603 13.1251 13.1068C13.9841 13.6603 15.008 13.9824 16.1063 13.9824C17.2045 13.9824 18.2285 13.6603 19.0875 13.1068C19.9465 13.6603 20.9704 13.9824 22.0687 13.9824C22.7354 13.9824 23.3744 13.8641 23.9658 13.6472V20.4499C23.9658 21.6634 23.9658 22.2701 23.7295 22.7336C23.5216 23.1412 23.19 23.4727 22.782 23.6804C22.3182 23.9166 21.7111 23.9166 20.4968 23.9166H5.75338C4.5391 23.9166 3.93196 23.9166 3.46817 23.6804C3.0602 23.4727 2.72852 23.1412 2.52065 22.7336C2.28434 22.2701 2.28434 21.6634 2.28434 20.4499V13.6472ZM4.45243 18.0666C4.45243 17.4599 4.45243 17.1565 4.57059 16.9248C4.67452 16.7209 4.84036 16.5552 5.04435 16.4513C5.27624 16.3333 5.57981 16.3333 6.18695 16.3333H10.3064C10.9136 16.3333 11.2171 16.3333 11.449 16.4513C11.653 16.5552 11.8189 16.7209 11.9228 16.9248C12.041 17.1565 12.041 17.4599 12.041 18.0666V20.0166C12.041 20.6233 12.041 20.9267 11.9228 21.1584C11.8189 21.3622 11.653 21.528 11.449 21.6318C11.2171 21.7499 10.9136 21.7499 10.3064 21.7499H6.18695C5.57981 21.7499 5.27624 21.7499 5.04435 21.6318C4.84036 21.528 4.67452 21.3622 4.57059 21.1584C4.45243 20.9267 4.45243 20.6233 4.45243 20.0166V18.0666Z" fill="#007AFF"/>
<path d="M4.18139 12.5416C2.02727 12.5416 0.264462 10.8673 0.125 8.74992H26.125C25.9855 10.8673 24.2227 12.5416 22.0686 12.5416C20.8907 12.5416 19.8299 12.041 19.0874 11.2411C18.345 12.041 17.2841 12.5416 16.1062 12.5416C14.9283 12.5416 13.8675 12.041 13.125 11.2411C12.3826 12.041 11.3217 12.5416 10.1438 12.5416C8.96592 12.5416 7.90505 12.041 7.16259 11.2411C6.42014 12.041 5.35926 12.5416 4.18139 12.5416Z" fill="#007AFF"/>
</svg>
